<mxfile host="www.draw.io" modified="2019-12-30T06:52:36.976Z" agent="Mozilla/5.0 (Windows NT 10.0; WOW64) AppleWebKit/537.36 (KHTML, like Gecko) Chrome/74.0.3729.131 Safari/537.36" etag="Y0p_gXnxGkeZQo9cU8B6" version="12.4.7" type="github">
  <diagram id="eV_x1_mUISScl7gN_bO1" name="Page-1">
    <mxGraphModel dx="1360" dy="802" grid="1" gridSize="10" guides="1" tooltips="1" connect="1" arrows="1" fold="1" page="1" pageScale="1" pageWidth="3300" pageHeight="4681" math="0" shadow="0">
      <root>
        <mxCell id="0"/>
        <mxCell id="1" parent="0"/>
        <mxCell id="LUKFBrfRJNHnz4f8iRO7-1" value="&lt;font style=&quot;font-size: 20px&quot;&gt;Jenkin&amp;nbsp;任务&amp;nbsp;执行机&lt;/font&gt;" style="rounded=0;whiteSpace=wrap;html=1;" vertex="1" parent="1">
          <mxGeometry x="40" y="310" width="140" height="70" as="geometry"/>
        </mxCell>
        <mxCell id="LUKFBrfRJNHnz4f8iRO7-13" style="edgeStyle=orthogonalEdgeStyle;rounded=0;orthogonalLoop=1;jettySize=auto;html=1;exitX=1;exitY=0.5;exitDx=0;exitDy=0;entryX=0;entryY=0.5;entryDx=0;entryDy=0;" edge="1" parent="1" source="LUKFBrfRJNHnz4f8iRO7-2" target="LUKFBrfRJNHnz4f8iRO7-11">
          <mxGeometry relative="1" as="geometry"/>
        </mxCell>
        <mxCell id="LUKFBrfRJNHnz4f8iRO7-2" value="&lt;font style=&quot;font-size: 20px&quot;&gt;项目代码目录&lt;/font&gt;" style="rounded=0;whiteSpace=wrap;html=1;" vertex="1" parent="1">
          <mxGeometry x="250" y="260" width="140" height="70" as="geometry"/>
        </mxCell>
        <mxCell id="LUKFBrfRJNHnz4f8iRO7-10" style="edgeStyle=orthogonalEdgeStyle;rounded=0;orthogonalLoop=1;jettySize=auto;html=1;exitX=1;exitY=0.5;exitDx=0;exitDy=0;entryX=0;entryY=0.5;entryDx=0;entryDy=0;" edge="1" parent="1" source="LUKFBrfRJNHnz4f8iRO7-3" target="LUKFBrfRJNHnz4f8iRO7-8">
          <mxGeometry relative="1" as="geometry"/>
        </mxCell>
        <mxCell id="LUKFBrfRJNHnz4f8iRO7-3" value="&lt;font style=&quot;font-size: 20px&quot;&gt;自动化脚本--&lt;br&gt;自动化构建&lt;/font&gt;" style="rounded=0;whiteSpace=wrap;html=1;" vertex="1" parent="1">
          <mxGeometry x="250" y="380" width="140" height="70" as="geometry"/>
        </mxCell>
        <mxCell id="LUKFBrfRJNHnz4f8iRO7-4" value="" style="endArrow=classic;html=1;entryX=-0.007;entryY=0.371;entryDx=0;entryDy=0;entryPerimeter=0;exitX=1;exitY=0.25;exitDx=0;exitDy=0;" edge="1" parent="1" source="LUKFBrfRJNHnz4f8iRO7-1" target="LUKFBrfRJNHnz4f8iRO7-2">
          <mxGeometry width="50" height="50" relative="1" as="geometry">
            <mxPoint x="210" y="270" as="sourcePoint"/>
            <mxPoint x="270" y="220" as="targetPoint"/>
          </mxGeometry>
        </mxCell>
        <mxCell id="LUKFBrfRJNHnz4f8iRO7-5" value="下载最新代码" style="text;html=1;strokeColor=none;fillColor=none;align=center;verticalAlign=middle;whiteSpace=wrap;rounded=0;" vertex="1" parent="1">
          <mxGeometry x="180" y="270" width="40" height="20" as="geometry"/>
        </mxCell>
        <mxCell id="LUKFBrfRJNHnz4f8iRO7-6" value="下载最新代码" style="text;html=1;strokeColor=none;fillColor=none;align=center;verticalAlign=middle;whiteSpace=wrap;rounded=0;" vertex="1" parent="1">
          <mxGeometry x="170" y="400" width="40" height="20" as="geometry"/>
        </mxCell>
        <mxCell id="LUKFBrfRJNHnz4f8iRO7-7" value="" style="endArrow=classic;html=1;entryX=0;entryY=0.25;entryDx=0;entryDy=0;exitX=1;exitY=0.5;exitDx=0;exitDy=0;" edge="1" parent="1" source="LUKFBrfRJNHnz4f8iRO7-1" target="LUKFBrfRJNHnz4f8iRO7-3">
          <mxGeometry width="50" height="50" relative="1" as="geometry">
            <mxPoint x="200" y="390" as="sourcePoint"/>
            <mxPoint x="250" y="340" as="targetPoint"/>
          </mxGeometry>
        </mxCell>
        <mxCell id="LUKFBrfRJNHnz4f8iRO7-12" style="edgeStyle=orthogonalEdgeStyle;rounded=0;orthogonalLoop=1;jettySize=auto;html=1;exitX=0.5;exitY=0;exitDx=0;exitDy=0;entryX=0.5;entryY=1;entryDx=0;entryDy=0;" edge="1" parent="1" source="LUKFBrfRJNHnz4f8iRO7-8" target="LUKFBrfRJNHnz4f8iRO7-11">
          <mxGeometry relative="1" as="geometry"/>
        </mxCell>
        <mxCell id="LUKFBrfRJNHnz4f8iRO7-17" style="edgeStyle=orthogonalEdgeStyle;rounded=0;orthogonalLoop=1;jettySize=auto;html=1;exitX=1;exitY=0.5;exitDx=0;exitDy=0;entryX=0;entryY=0.5;entryDx=0;entryDy=0;" edge="1" parent="1" source="LUKFBrfRJNHnz4f8iRO7-8" target="LUKFBrfRJNHnz4f8iRO7-14">
          <mxGeometry relative="1" as="geometry"/>
        </mxCell>
        <mxCell id="LUKFBrfRJNHnz4f8iRO7-8" value="&lt;font style=&quot;font-size: 20px&quot;&gt;对项目进行编译打包&lt;/font&gt;" style="rounded=0;whiteSpace=wrap;html=1;" vertex="1" parent="1">
          <mxGeometry x="450" y="380" width="140" height="70" as="geometry"/>
        </mxCell>
        <mxCell id="LUKFBrfRJNHnz4f8iRO7-20" style="edgeStyle=orthogonalEdgeStyle;rounded=0;orthogonalLoop=1;jettySize=auto;html=1;exitX=1;exitY=0.5;exitDx=0;exitDy=0;entryX=0;entryY=0.5;entryDx=0;entryDy=0;" edge="1" parent="1" source="LUKFBrfRJNHnz4f8iRO7-11" target="LUKFBrfRJNHnz4f8iRO7-18">
          <mxGeometry relative="1" as="geometry"/>
        </mxCell>
        <mxCell id="LUKFBrfRJNHnz4f8iRO7-11" value="&lt;font style=&quot;font-size: 20px&quot;&gt;编译后项目代码&lt;/font&gt;" style="rounded=0;whiteSpace=wrap;html=1;" vertex="1" parent="1">
          <mxGeometry x="450" y="260" width="140" height="70" as="geometry"/>
        </mxCell>
        <mxCell id="LUKFBrfRJNHnz4f8iRO7-19" style="edgeStyle=orthogonalEdgeStyle;rounded=0;orthogonalLoop=1;jettySize=auto;html=1;exitX=0.5;exitY=0;exitDx=0;exitDy=0;entryX=0.5;entryY=1;entryDx=0;entryDy=0;" edge="1" parent="1" source="LUKFBrfRJNHnz4f8iRO7-14" target="LUKFBrfRJNHnz4f8iRO7-18">
          <mxGeometry relative="1" as="geometry"/>
        </mxCell>
        <mxCell id="LUKFBrfRJNHnz4f8iRO7-22" style="edgeStyle=orthogonalEdgeStyle;rounded=0;orthogonalLoop=1;jettySize=auto;html=1;exitX=1;exitY=0.5;exitDx=0;exitDy=0;entryX=0;entryY=0.5;entryDx=0;entryDy=0;" edge="1" parent="1" source="LUKFBrfRJNHnz4f8iRO7-14" target="LUKFBrfRJNHnz4f8iRO7-21">
          <mxGeometry relative="1" as="geometry"/>
        </mxCell>
        <mxCell id="LUKFBrfRJNHnz4f8iRO7-14" value="&lt;font style=&quot;font-size: 20px&quot;&gt;对项目配置文件进行解密&lt;/font&gt;" style="rounded=0;whiteSpace=wrap;html=1;" vertex="1" parent="1">
          <mxGeometry x="650" y="380" width="140" height="70" as="geometry"/>
        </mxCell>
        <mxCell id="LUKFBrfRJNHnz4f8iRO7-16" style="edgeStyle=orthogonalEdgeStyle;rounded=0;orthogonalLoop=1;jettySize=auto;html=1;exitX=0.5;exitY=1;exitDx=0;exitDy=0;entryX=0.5;entryY=0;entryDx=0;entryDy=0;" edge="1" parent="1" source="LUKFBrfRJNHnz4f8iRO7-15" target="LUKFBrfRJNHnz4f8iRO7-1">
          <mxGeometry relative="1" as="geometry"/>
        </mxCell>
        <mxCell id="LUKFBrfRJNHnz4f8iRO7-15" value="&lt;font style=&quot;font-size: 20px&quot;&gt;远程调用Jenkins任务&lt;/font&gt;" style="rounded=1;whiteSpace=wrap;html=1;align=center;" vertex="1" parent="1">
          <mxGeometry x="50" y="170" width="120" height="60" as="geometry"/>
        </mxCell>
        <mxCell id="LUKFBrfRJNHnz4f8iRO7-18" value="&lt;span style=&quot;font-size: 20px&quot;&gt;解密后配置文件&lt;/span&gt;" style="rounded=0;whiteSpace=wrap;html=1;" vertex="1" parent="1">
          <mxGeometry x="650" y="260" width="140" height="70" as="geometry"/>
        </mxCell>
        <mxCell id="LUKFBrfRJNHnz4f8iRO7-21" value="&lt;span style=&quot;font-size: 20px&quot;&gt;上传至测试器脚本&lt;/span&gt;" style="rounded=0;whiteSpace=wrap;html=1;" vertex="1" parent="1">
          <mxGeometry x="850" y="380" width="140" height="70" as="geometry"/>
        </mxCell>
        <mxCell id="LUKFBrfRJNHnz4f8iRO7-23" value="&lt;span style=&quot;font-size: 20px&quot;&gt;解密后配置文件&lt;/span&gt;" style="rounded=0;whiteSpace=wrap;html=1;" vertex="1" parent="1">
          <mxGeometry x="850" y="260" width="140" height="70" as="geometry"/>
        </mxCell>
      </root>
    </mxGraphModel>
  </diagram>
</mxfile>
